<svg width="230" height="260" viewBox="-20 -20 270 300" fill="#bc8953" xmlns="http://www.w3.org/2000/svg">
  <path d="M183.52 88.5628C183.52 87.1352 182.759 85.8158 181.524 85.1007L128.25 54.2704C125.584 52.7272 122.247 54.6515 122.247 57.7325V119.399C122.247 120.827 123.008 122.146 124.243 122.861L177.516 153.691C180.183 155.235 183.52 153.31 183.52 150.229V88.5628Z M59.705 166.281C57.0428 167.821 57.0428 171.665 59.705 173.205L113.002 204.044C114.241 204.761 115.769 204.761 117.009 204.043L170.296 173.205C172.958 171.664 172.958 167.821 170.296 166.281L117.009 135.442C115.769 134.725 114.241 134.725 113.002 135.442L59.705 166.281Z M105.767 122.872C107.003 122.156 107.764 120.837 107.764 119.409V4.93583C107.764 1.85494 104.427 -0.0693519 101.76 1.47364L48.4767 32.3047C47.241 33.0197 46.48 34.3392 46.48 35.7669V150.24C46.48 153.321 49.8166 155.246 52.4833 153.703L105.767 122.872Z M128.25 1.47415C125.583 -0.0690222 122.247 1.85526 122.247 4.93624V31.7235C122.247 33.1512 123.008 34.4706 124.243 35.1857L196.006 76.7127C197.242 77.4277 198.003 78.7472 198.003 80.1748V171.625C198.003 173.052 197.242 174.372 196.006 175.087L117.008 220.799C115.769 221.516 114.241 221.516 113.002 220.799L33.9939 175.087C32.758 174.372 31.997 173.052 31.997 171.625V48.7743C31.997 45.6932 28.6601 43.769 25.9934 45.3123L1.99639 59.2004C0.760823 59.9155 0 61.2348 0 62.6624V191.138C0 192.566 0.760852 193.885 1.99646 194.6L113.002 258.84C114.241 259.558 115.769 259.558 117.009 258.84L228.004 194.6C229.239 193.885 230 192.566 230 191.138V62.6625C230 61.2349 229.239 59.9155 228.003 59.2004L128.25 1.47415Z"/>
</svg>
